<?xml version="1.0" encoding="UTF-8"?>
<svg width="13px" height="26px" viewBox="0 0 13 26" version="1.1" xmlns="http://www.w3.org/2000/svg" xmlns:xlink="http://www.w3.org/1999/xlink">
    <!-- Generator: Sketch 60.1 (88133) - https://sketch.com -->
    <title>facebook-icon-mobile</title>
    <desc>Created with Sketch.</desc>
    <defs>
        <polygon id="path-1" points="0 7.8125e-05 11.8748438 7.8125e-05 11.8748438 25.5607812 0 25.5607812"></polygon>
    </defs>
    <g id="Mobile" stroke="none" stroke-width="1" fill="none" fill-rule="evenodd">
        <g id="Secondary_Nav_Mobile_Option1_Page1_D" transform="translate(-293.000000, -449.000000)">
            <g id="Butttons" transform="translate(278.000000, 343.000000)">
                <g id="Share">
                    <g id="Flyout">
                        <g id="Icons" transform="translate(9.000000, 21.000000)">
                            <g id="facebook-icon-mobile" transform="translate(6.250000, 85.322917)">
                                <mask id="mask-2" fill="white">
                                    <use xlink:href="#path-1"></use>
                                </mask>
                                <g id="Clip-2"></g>
                                <path d="M2.61625,12.8810937 L2.61625,25.2389062 C2.61625,25.4170312 2.76078125,25.5607813 2.938125,25.5607813 L7.5271875,25.5607813 C7.7053125,25.5607813 7.8490625,25.4170312 7.8490625,25.2389062 L7.8490625,12.6795313 L11.1764062,12.6795313 C11.3435937,12.6795313 11.4834375,12.5521875 11.4967187,12.385 L11.8170313,8.600625 C11.8334375,8.413125 11.6842188,8.2521875 11.4959375,8.2521875 L7.8490625,8.2521875 L7.8490625,5.56703125 C7.8490625,4.938125 8.36,4.42796875 8.98890625,4.42796875 L11.5521875,4.42796875 C11.7303125,4.42796875 11.8748438,4.2834375 11.8748438,4.10609375 L11.8748438,0.32171875 C11.8748438,0.144375 11.7303125,-0.00015625 11.5521875,-0.00015625 L7.22015625,-0.00015625 C4.67796875,-0.00015625 2.61625,2.06078125 2.61625,4.60375 L2.61625,8.2521875 L0.32171875,8.2521875 C0.144375,8.2521875 -0.00015625,8.3959375 -0.00015625,8.5740625 L-0.00015625,12.3584375 C-0.00015625,12.5357812 0.144375,12.6795313 0.32171875,12.6795313 L2.61625,12.6795313 L2.61625,12.8810937 Z" id="Fill-1" fill="#01807E" mask="url(#mask-2)"></path>
                            </g>
                        </g>
                    </g>
                </g>
            </g>
        </g>
    </g>
</svg>