<?xml version="1.0" encoding="UTF-8"?>
<svg width="24px" height="23px" viewBox="0 0 24 23" version="1.1" xmlns="http://www.w3.org/2000/svg" xmlns:xlink="http://www.w3.org/1999/xlink">
    <!-- Generator: Sketch 60.1 (88133) - https://sketch.com -->
    <title>linkedin-icon-mobile</title>
    <desc>Created with Sketch.</desc>
    <g id="Mobile" stroke="none" stroke-width="1" fill="none" fill-rule="evenodd">
        <g id="Secondary_Nav_Mobile_Option1_Page1_D" transform="translate(-288.000000, -406.000000)" fill="#01807E">
            <g id="Butttons" transform="translate(278.000000, 343.000000)">
                <g id="Share">
                    <g id="Flyout">
                        <g id="Icons" transform="translate(9.000000, 21.000000)">
                            <g id="linkedin-icon-mobile" transform="translate(1.562500, 42.552083)">
                                <path d="M0.670234375,21.4754688 L4.77179687,21.4754688 C4.96789062,21.4754688 5.12726562,21.3160938 5.12726562,21.12 L5.12726562,7.35125 C5.12726562,7.15515625 4.96789062,6.99578125 4.77179687,6.99578125 L0.670234375,6.99578125 C0.474140625,6.99578125 0.314765625,7.15515625 0.314765625,7.35125 L0.314765625,21.12 C0.314765625,21.3160938 0.474140625,21.4754688 0.670234375,21.4754688 M22.4850781,13.1723438 L22.4850781,21.12 C22.4850781,21.3160938 22.3264844,21.4754688 22.1296094,21.4754688 L18.0264844,21.4754688 C17.8303906,21.4754688 17.6710156,21.3160938 17.6710156,21.12 L17.6710156,13.7278125 C17.6710156,11.7832813 16.9757031,10.4551563 15.2327344,10.4551563 C13.9022656,10.4551563 13.1124219,11.3489063 12.7632031,12.2145313 C12.6366406,12.5246875 12.6038281,12.954375 12.6038281,13.3879688 L12.6038281,21.1192188 C12.6038281,21.3160938 12.4444531,21.4754688 12.2483594,21.4754688 L8.14601563,21.4754688 C7.94914063,21.4754688 7.78976562,21.3160938 7.79054401,21.1192188 C7.79992187,19.15125 7.84210937,9.60046875 7.79914062,7.3559375 C7.79601562,7.15671875 7.95617187,6.99578125 8.15460937,6.99578125 L12.2483594,6.99578125 C12.4444531,6.99578125 12.6038281,7.15515625 12.6038281,7.35125 L12.6038281,9.04734375 C12.5944531,9.06375 12.5811719,9.079375 12.5717969,9.095 L12.6038281,9.095 L12.6038281,9.04734375 C13.2444531,8.06296875 14.3850781,6.6559375 16.9428906,6.6559375 C20.1108594,6.6559375 22.4850781,8.72546875 22.4850781,13.1723438" id="Fill-1"></path>
                                <path d="M5.15398438,2.57703125 C5.15398438,4.00046875 4.00007812,5.15359375 2.57664063,5.15359375 C1.15398438,5.15359375 7.8125e-05,4.00046875 7.8125e-05,2.57703125 C7.8125e-05,1.15359375 1.15398438,-0.0003125 2.57664063,-0.0003125 C4.00007812,-0.0003125 5.15398438,1.15359375 5.15398438,2.57703125" id="Fill-3"></path>
                            </g>
                        </g>
                    </g>
                </g>
            </g>
        </g>
    </g>
</svg>