<?xml version="1.0" encoding="UTF-8"?>
<svg width="25px" height="22px" viewBox="0 0 25 22" version="1.1" xmlns="http://www.w3.org/2000/svg" xmlns:xlink="http://www.w3.org/1999/xlink">
    <!-- Generator: Sketch 60.1 (88133) - https://sketch.com -->
    <title>twitter-icon</title>
    <desc>Created with Sketch.</desc>
    <defs>
        <polygon id="path-1" points="4.47350966e-05 0.623467156 24.8523437 0.623467156 24.8523437 21.0935607 4.47350966e-05 21.0935607"></polygon>
        <polygon id="path-3" points="0.348835271 0.3028125 1.3078854 0.3028125 1.3078854 0.78125 0.348835271 0.78125"></polygon>
        <polygon id="path-5" points="0.645128657 0.303333333 1.42637866 0.303333333 1.42637866 0.78125 0.645128657 0.78125"></polygon>
        <polygon id="path-7" points="0.111883681 0.31515625 0.893133681 0.31515625 0.893133681 0.78125 0.111883681 0.78125"></polygon>
        <polygon id="path-9" points="0.159453125 0.6234375 0.940703125 0.6234375 0.940703125 1.05228516 0.159453125 1.05228516"></polygon>
    </defs>
    <g id="Desktop" stroke="none" stroke-width="1" fill="none" fill-rule="evenodd">
        <g id="1E_Secondary_Nav_Desktop_Careers_Social_Functionality_InBrowser" transform="translate(-1374.000000, -508.000000)">
            <g id="Social-Sharing-Flyout" transform="translate(1348.000000, 489.000000)">
                <g id="Group-11" transform="translate(26.000000, 19.000000)">
                    <g id="twitter-icon">
                        <g id="Group-3" transform="translate(0.000000, 0.157891)">
                            <mask id="mask-2" fill="white">
                                <use xlink:href="#path-1"></use>
                            </mask>
                            <g id="Clip-2"></g>
                            <path d="M24.759375,3.076875 C23.9695313,3.4346875 23.1007813,3.65109375 22.2484375,3.7940625 C22.653125,3.72609375 23.2492188,2.9940625 23.4875,2.69796875 C23.8515625,2.24640625 24.1539063,1.7315625 24.3234375,1.1753125 C24.3460938,1.13234375 24.3617188,1.07765625 24.31875,1.04484375 C24.2640625,1.02296875 24.2289063,1.03390625 24.1859375,1.05578125 C23.234375,1.56515625 22.2507813,1.93546875 21.2039062,2.1971875 C21.1171875,2.21828125 21.053125,2.1971875 20.9984375,2.1425 C20.9109375,2.04484375 20.8296875,1.95265625 20.7375,1.87609375 C20.2976563,1.50109375 19.8257813,1.20734375 19.2929688,0.9909375 C18.59375,0.70578125 17.8304688,0.58546875 17.0773438,0.63390625 C16.3445313,0.6815625 15.6257812,0.8878125 14.9757813,1.22765625 C14.3242188,1.56828125 13.7421875,2.04171875 13.2804688,2.6128125 C12.8007812,3.2034375 12.4476563,3.90109375 12.2671875,4.6409375 C12.0921875,5.355 12.1070313,6.06046875 12.2132813,6.78234375 C12.2296875,6.901875 12.21875,6.91828125 12.1109375,6.901875 C8.01484375,6.2925 4.6203125,4.826875 1.86328125,1.68625 C1.74375,1.54953125 1.67890625,1.54953125 1.58125,1.69640625 C0.375,3.50421875 0.96015625,6.40890625 2.4671875,7.83625 C2.66796875,8.02609375 2.8734375,8.21671875 3.09609375,8.39015625 C3.015625,8.4065625 2.01328125,8.29796875 1.11953125,7.83625 C1,7.76046875 0.93984375,7.8034375 0.92890625,7.939375 C0.91796875,8.1346875 0.93515625,8.314375 0.96171875,8.526875 C1.19296875,10.3589062 2.46171875,12.0542187 4.2,12.7151562 C4.40625,12.801875 4.634375,12.8784375 4.85625,12.9159375 C4.4609375,13.0026562 4.053125,13.0651562 2.9171875,12.9760937 C2.77578125,12.94875 2.721875,13.0198437 2.77578125,13.155 C3.6296875,15.4807812 5.471875,16.1729687 6.85078125,16.5675 C7.03515625,16.5995312 7.2203125,16.5995312 7.40546875,16.6432812 C7.39375,16.6596875 7.38359375,16.6596875 7.37265625,16.6760937 C6.91484375,17.3729687 5.32890625,17.8925 4.590625,18.1503125 C3.246875,18.620625 1.78359375,18.8315625 0.36328125,18.6917187 C0.1359375,18.658125 0.0890625,18.6604687 0.02734375,18.6917187 C-0.03515625,18.73 0.01953125,18.7839062 0.0921875,18.8432812 C0.38046875,19.0339062 0.6734375,19.2026562 0.97265625,19.3651562 C1.87421875,19.8432812 2.8140625,20.22375 3.79765625,20.4948437 C8.87421875,21.8971875 14.5929688,20.8667187 18.4054688,17.0792187 C21.3992187,14.105 22.4484375,10.0034375 22.4484375,5.89640625 C22.4484375,5.73546875 22.6382813,5.6471875 22.7515625,5.56203125 C23.5304688,4.976875 24.1492188,4.276875 24.7296875,3.49484375 C24.8609375,3.3190625 24.8525238,3.1628125 24.8525238,3.09875 L24.8525238,3.076875 C24.8525238,3.01125 24.8609375,3.03078125 24.759375,3.076875" id="Fill-1" fill="#01807E" mask="url(#mask-2)"></path>
                        </g>
                        <g id="Group-6" transform="translate(7.031250, 20.470391)">
                            <mask id="mask-4" fill="white">
                                <use xlink:href="#path-3"></use>
                            </mask>
                            <g id="Clip-5"></g>
                            <path d="M0.349140625,0.6934375 C2.45460938,0.6934375 0.450703125,0.6934375 0.349140625,0.6934375 C0.626484375,0.6934375 0.338203125,0.6934375 0.349140625,0.6934375" id="Fill-4" fill="#FFFFFF" mask="url(#mask-4)"></path>
                        </g>
                        <g id="Group-9" transform="translate(6.250000, 20.470391)">
                            <mask id="mask-6" fill="white">
                                <use xlink:href="#path-5"></use>
                            </mask>
                            <g id="Clip-8"></g>
                            <path d="M1.13039063,0.6934375 C1.09835938,0.69578125 0.721015625,0.6934375 1.13039063,0.6934375 C1.13039063,0.6934375 1.06476563,0.6934375 1.13039063,0.6934375" id="Fill-7" fill="#FFFFFF" mask="url(#mask-6)"></path>
                        </g>
                        <g id="Group-12" transform="translate(7.812500, 20.470391)">
                            <mask id="mask-8" fill="white">
                                <use xlink:href="#path-7"></use>
                            </mask>
                            <g id="Clip-11"></g>
                            <path d="M0.404765625,0.71515625 C0.404765625,0.67296875 0.844609375,0.71515625 0.404765625,0.71515625 C0.404765625,0.69328125 0.458671875,0.71515625 0.404765625,0.71515625" id="Fill-10" fill="#FFFFFF" mask="url(#mask-8)"></path>
                        </g>
                        <g id="Group-15" transform="translate(16.406250, 0.157891)">
                            <mask id="mask-10" fill="white">
                                <use xlink:href="#path-9"></use>
                            </mask>
                            <g id="Clip-14"></g>
                            <path d="M0.601640625,0.65375 C0.574296875,0.67484375 0.536015625,0.67484375 0.498515625,0.65375 L0.601640625,0.65375 Z" id="Fill-13" fill="#FFFFFF" mask="url(#mask-10)"></path>
                        </g>
                    </g>
                </g>
            </g>
        </g>
    </g>
</svg>